<svg width="106" height="57" viewBox="0 0 106 57" fill="none" xmlns="http://www.w3.org/2000/svg">
<g id="food">
<g id="dots">
<path id="dot2" fill-rule="evenodd" clip-rule="evenodd" d="M70.6944 17.6616C75.4963 17.6616 79.3889 13.708 79.3889 8.83091C79.3889 3.95364 75.4963 0 70.6944 0C65.8926 0 62 3.95364 62 8.83091C62 13.708 65.8926 17.6616 70.6944 17.6616Z" fill="#AB4D85"/>
<path id="dot1" fill-rule="evenodd" clip-rule="evenodd" d="M48.6944 17.6616C53.4963 17.6616 57.3889 13.708 57.3889 8.83082C57.3889 3.9538 53.4963 0 48.6944 0C43.8926 0 40 3.9538 40 8.83082C40 13.708 43.8926 17.6616 48.6944 17.6616Z" fill="#576ED6"/>
<path id="dot3" fill-rule="evenodd" clip-rule="evenodd" d="M92.6945 17.6616C97.4963 17.6616 101.389 13.708 101.389 8.83091C101.389 3.95363 97.4963 0 92.6945 0C87.8926 0 84 3.95363 84 8.83091C84 13.708 87.8926 17.6616 92.6945 17.6616Z" fill="#2388FF"/>
</g>
<path id="fLetter" d="M10.86 46.56C8.26 46.56 6.4 45.82 5.28 44.34C4.16 42.82 3.6 40.58 3.6 37.62C3.6 34.62 4.86 26.16 7.38 12.24L4.2 5.82C8.72 2.9 12.84 1.44 16.56 1.44C18.92 1.44 20.38 2.56 20.94 4.8C25.02 4.68 30.46 3.66 37.26 1.74C37.58 3.54 37.74 5.06 37.74 6.3C37.74 8.86 36.76 10.88 34.8 12.36C32.88 13.8 30.64 14.52 28.08 14.52C25.52 14.52 22.96 13.9 20.4 12.66C20.4 12.66 20.22 13.64 19.86 15.6C19.58 17.16 19.12 19.54 18.48 22.74C19.84 23.06 21.12 23.22 22.32 23.22C23.96 22.9 25.76 22.44 27.72 21.84C27.92 22.52 28.02 23.64 28.02 25.2C28.02 26.72 27.4 27.94 26.16 28.86C24.92 29.78 23.52 30.24 21.96 30.24C20.4 30.24 18.82 30.06 17.22 29.7C16.78 32.22 16.56 34.04 16.56 35.16C16.56 39.04 17.16 41.94 18.36 43.86C15.96 45.66 13.46 46.56 10.86 46.56Z" fill="#2388FF"/>
<path id="ood" d="M25.85 34.596C25.85 30.2893 27.0513 26.844 29.454 24.26C31.8567 21.6533 35.1433 20.35 39.314 20.35C40.6513 20.35 41.6033 20.622 42.17 21.166C42.7593 21.6873 43.054 22.5033 43.054 23.614C43.054 23.7727 43.0313 24.0787 42.986 24.532C43.8247 23.852 44.754 23.512 45.774 23.512C47.1567 23.512 48.3353 24.1353 49.31 25.382C50.3073 26.606 50.806 28.3853 50.806 30.72C50.806 33.0547 50.432 35.1967 49.684 37.146C48.936 39.0953 47.9387 40.6933 46.692 41.94C45.468 43.1867 44.0627 44.15 42.476 44.83C40.912 45.51 39.2913 45.85 37.614 45.85C33.9873 45.85 31.12 44.8187 29.012 42.756C26.904 40.6707 25.85 37.9507 25.85 34.596ZM42.816 36.194C41.3653 34.426 40.64 32.522 40.64 30.482C40.64 28.442 41.0933 26.7987 42 25.552C41.592 25.484 41.184 25.45 40.776 25.45C39.1667 25.45 37.7727 25.9373 36.594 26.912C34.3727 28.7253 33.262 31.2413 33.262 34.46C33.262 36.296 33.67 37.826 34.486 39.05C35.302 40.274 36.4353 40.886 37.886 40.886C38.9967 40.886 40.0053 40.4553 40.912 39.594C41.8413 38.71 42.476 37.5767 42.816 36.194ZM52.1801 34.596C52.1801 30.2893 53.3814 26.844 55.7841 24.26C58.1867 21.6533 61.4734 20.35 65.6441 20.35C66.9814 20.35 67.9334 20.622 68.5001 21.166C69.0894 21.6873 69.3841 22.5033 69.3841 23.614C69.3841 23.7727 69.3614 24.0787 69.3161 24.532C70.1547 23.852 71.0841 23.512 72.1041 23.512C73.4867 23.512 74.6654 24.1353 75.6401 25.382C76.6374 26.606 77.1361 28.3853 77.1361 30.72C77.1361 33.0547 76.7621 35.1967 76.0141 37.146C75.2661 39.0953 74.2687 40.6933 73.0221 41.94C71.7981 43.1867 70.3927 44.15 68.8061 44.83C67.2421 45.51 65.6214 45.85 63.9441 45.85C60.3174 45.85 57.4501 44.8187 55.3421 42.756C53.2341 40.6707 52.1801 37.9507 52.1801 34.596ZM69.1461 36.194C67.6954 34.426 66.9701 32.522 66.9701 30.482C66.9701 28.442 67.4234 26.7987 68.3301 25.552C67.9221 25.484 67.5141 25.45 67.1061 25.45C65.4967 25.45 64.1027 25.9373 62.9241 26.912C60.7027 28.7253 59.5921 31.2413 59.5921 34.46C59.5921 36.296 60.0001 37.826 60.8161 39.05C61.6321 40.274 62.7654 40.886 64.2161 40.886C65.3267 40.886 66.3354 40.4553 67.2421 39.594C68.1714 38.71 68.8061 37.5767 69.1461 36.194ZM79.7002 39.458C79.7002 38.166 80.0062 35.888 80.6182 32.624C81.2302 29.36 81.6042 27.2973 81.7402 26.436L79.9382 22.798C82.8168 21.166 85.2648 20.35 87.2822 20.35C88.2795 20.35 89.0275 20.69 89.5262 21.37C91.4075 20.7127 93.1415 20.384 94.7282 20.384C97.6748 20.384 99.9642 21.3473 101.596 23.274C103.228 25.178 104.044 27.558 104.044 30.414C104.044 34.1767 102.661 37.6333 99.8962 40.784C98.5588 42.3027 96.7908 43.5267 94.5922 44.456C92.4162 45.3853 90.0815 45.85 87.5882 45.85C85.0948 45.85 83.1568 45.306 81.7742 44.218C80.3915 43.1073 79.7002 41.5207 79.7002 39.458ZM86.9082 40.75C87.3842 40.8407 87.9168 40.886 88.5062 40.886C90.9768 40.886 92.9035 40.002 94.2862 38.234C95.6688 36.4433 96.3602 34.2447 96.3602 31.638C96.3602 29.53 95.8842 27.8527 94.9322 26.606C93.9802 25.3593 92.6088 24.736 90.8182 24.736C90.5462 24.736 90.0928 24.7813 89.4582 24.872C89.2995 26.028 88.8802 28.612 88.2002 32.624C87.5428 36.6133 87.1122 39.322 86.9082 40.75Z" fill="#2388FF"/>
</g>
</svg>
